nColumns=28
nRows=60
DataType=double
version=3
OpenSimVersion=4.1
endheader
time	ground_force_1_vx	ground_force_1_vy	ground_force_1_vz	ground_force_1_px	ground_force_1_py	ground_force_1_pz	ground_force_1_mx	ground_force_1_my	ground_force_1_mz	ground_force_2_vx	ground_force_2_vy	ground_force_2_vz	ground_force_2_px	ground_force_2_py	ground_force_2_pz	ground_force_2_mx	ground_force_2_my	ground_force_2_mz	ground_force_3_vx	ground_force_3_vy	ground_force_3_vz	ground_force_3_px	ground_force_3_py	ground_force_3_pz	ground_force_3_mx	ground_force_3_my	ground_force_3_mz
1.16	0	0	0	0	0	0	0	0	0	-42.4643	77.8924	10.9619	-0.075026	0.006	-0.84537	0	-0.380907	0	0	0	0	0	0	0	0	0	0
1.17	-81.4213	77.5274	-12.8472	-0.094187	0.006	-0.367451	0	0.220916	0	-201.564	323.34	51.3189	-0.091463	0.006	-0.850098	0	-0.811512	0	0	0	0	0	0	0	0	0	0
1.18	-245.314	443.131	-69.2084	-0.168764	0.006	-0.37946	0	0.877541	0	-248.473	460.501	89.3215	-0.099872	0.006	-0.848373	0	-1.59204	0	0	0	0	0	0	0	0	0	0
1.19	-157.295	928.281	-90.9937	-0.214321	0.006	-0.390243	0	-0.851942	0	-135.599	665.123	93.4596	-0.13869	0.006	-0.840863	0	0.378455	0	0	0	0	0	0	0	0	0	0
1.2	-38.4454	883.55	-52.0227	-0.223088	0.006	-0.394227	0	-2.473	0	-73.5778	1032.53	97.028	-0.175476	0.006	-0.834027	0	3.32277	0	0	0	0	0	0	0	0	0	0
1.21	-113.288	480.478	-49.6861	-0.18963	0.006	-0.389282	0	-2.02044	0	-160.46	1023.17	101.285	-0.173817	0.006	-0.832834	0	3.67721	0	0	0	0	0	0	0	0	0	0
1.22	-201.758	320.223	-73.825	-0.136858	0.006	-0.379024	0	-0.264913	0	-289.328	766.147	89.2328	-0.146807	0.006	-0.833809	0	2.90468	0	0	0	0	0	0	0	0	0	0
1.23	-245.288	341.06	-87.057	-0.124711	0.006	-0.377583	0	0.291722	0	-288.619	652.447	74.7589	-0.131421	0.006	-0.834051	0	3.6712	0	0	0	0	0	0	0	0	0	0
1.24	-232.188	393.335	-80.3969	-0.127588	0.006	-0.380194	0	-0.677527	0	-228.36	672.768	78.2329	-0.133399	0.006	-0.834424	0	4.69582	0	0	0	0	0	0	0	0	0	0
1.25	-198.333	450.294	-66.554	-0.132305	0.006	-0.383187	0	-2.22628	0	-204.21	703.021	83.7823	-0.131963	0.006	-0.835087	0	5.47371	0	0	0	0	0	0	0	0	0	0
1.26	-161.402	510.789	-58.6851	-0.138138	0.006	-0.385497	0	-2.94324	0	-200.646	689.354	86.3933	-0.124663	0.006	-0.836013	0	5.69557	0	0	0	0	0	0	0	0	0	0
1.27	-126.011	550.08	-58.2301	-0.141131	0.006	-0.386231	0	-2.76786	0	-186.433	658.979	87.2357	-0.117811	0.006	-0.83693	0	5.35488	0	0	0	0	0	0	0	0	0	0
1.28	-101.148	547.811	-58.1251	-0.138179	0.006	-0.386006	0	-2.13677	0	-162.236	628.427	80.5651	-0.113435	0.006	-0.836854	0	5.08269	0	0	0	0	0	0	0	0	0	0
1.29	-83.9618	514.678	-54.9314	-0.130646	0.006	-0.385608	0	-1.35943	0	-140.493	605.952	71.1202	-0.110809	0.006	-0.83626	0	5.04608	0	0	0	0	0	0	0	0	0	0
1.3	-72.0933	477.108	-48.2804	-0.122868	0.006	-0.386012	0	-0.828512	0	-132.087	596.901	68.1541	-0.108764	0.006	-0.835878	0	4.76042	0	0	0	0	0	0	0	0	0	0
1.31	-74.9722	448.749	-41.5029	-0.116871	0.006	-0.387396	0	-0.850428	0	-135.895	599.696	70.8328	-0.107202	0.006	-0.835742	0	4.36763	0	0	0	0	0	0	0	0	0	0
1.32	-89.0905	423.46	-37.0159	-0.11172	0.006	-0.388771	0	-1.083	0	-140.32	604.38	71.5337	-0.106569	0.006	-0.835365	0	4.37919	0	0	0	0	0	0	0	0	0	0
1.33	-99.4256	396.395	-34.7924	-0.107575	0.006	-0.389728	0	-1.16595	0	-139.758	604.284	68.6085	-0.106809	0.006	-0.834695	0	4.77839	0	0	0	0	0	0	0	0	0	0
1.34	-102.817	374.417	-33.061	-0.105006	0.006	-0.390488	0	-1.35794	0	-135.126	602.969	66.1199	-0.108462	0.006	-0.834092	0	5.20521	0	0	0	0	0	0	0	0	0	0
1.35	-103.51	364.651	-31.2689	-0.10408	0.006	-0.391149	0	-1.84436	0	-125.144	613.285	65.9273	-0.113428	0.006	-0.833519	0	5.58367	0	0	0	0	0	0	0	0	0	0
1.36	-105.108	369.42	-30.8592	-0.104685	0.006	-0.391734	0	-2.57043	0	-105.615	639.897	67.5648	-0.122369	0.006	-0.832886	0	5.95656	0	0	0	0	0	0	0	0	0	0
1.37	-102.571	380.567	-32.0516	-0.106833	0.006	-0.392046	0	-3.4411	0	-79.3547	668.123	71.0628	-0.132434	0.006	-0.83277	0	6.13926	0	0	0	0	0	0	0	0	0	0
1.38	-95.091	393.087	-35.1601	-0.11023	0.006	-0.391453	0	-4.34811	0	-55.5861	680.819	73.1849	-0.140379	0.006	-0.833131	0	6.29041	0	0	0	0	0	0	0	0	0	0
1.39	-87.6503	415.287	-39.5081	-0.116593	0.006	-0.390443	0	-5.14188	0	-46.6293	670.879	72.4562	-0.143962	0.006	-0.833942	0	6.6749	0	0	0	0	0	0	0	0	0	0
1.4	-68.0447	474.724	-42.4468	-0.134306	0.006	-0.391706	0	-5.78838	0	-51.1723	652.427	70.8918	-0.144398	0.006	-0.834846	0	7.22986	0	0	0	0	0	0	0	0	0	0
1.41	-14.1303	572.215	-49.0744	-0.160791	0.006	-0.394754	0	-5.67876	0	-53.4476	645.041	70.263	-0.145738	0.006	-0.835293	0	7.66711	0	0	0	0	0	0	0	0	0	0
1.42	30.558	618.411	-71.3185	-0.175522	0.006	-0.393998	0	-4.42286	0	-47.3922	648.614	69.7829	-0.149141	0.006	-0.835026	0	7.9312	0	0	0	0	0	0	0	0	0	0
1.43	19.0063	582.992	-82.2015	-0.174872	0.006	-0.39157	0	-3.923	0	-39.0103	653.563	68.1055	-0.152575	0.006	-0.834555	0	8.13344	0	0	0	0	0	0	0	0	0	0
1.44	-16.9523	530.812	-69.362	-0.168128	0.006	-0.391483	0	-5.2981	0	-33.7152	655.983	66.4464	-0.154577	0.006	-0.834286	0	8.23087	0	0	0	0	0	0	0	0	0	0
1.45	-31.9595	508.243	-55.8448	-0.16547	0.006	-0.393305	0	-6.68734	0	-30.0506	656.778	66.1493	-0.155719	0.006	-0.834098	0	8.06218	0	0	0	0	0	0	0	0	0	0
1.46	-25.5785	509.982	-58.5994	-0.16705	0.006	-0.393922	0	-6.62349	0	-25.0124	657.477	65.4969	-0.156939	0.006	-0.833621	0	7.6342	0	0	0	0	0	0	0	0	0	0
1.47	-15.6218	516.217	-67.6184	-0.168924	0.006	-0.393528	0	-5.82845	0	-19.6593	657.277	63.7976	-0.157781	0.006	-0.832957	0	7.10005	0	0	0	0	0	0	0	0	0	0
1.48	-11.2457	515.739	-69.8894	-0.169031	0.006	-0.393656	0	-5.31664	0	-18.067	653.269	61.9133	-0.156884	0.006	-0.832403	0	6.56283	0	0	0	0	0	0	0	0	0	0
1.49	-9.44745	510.043	-67.1328	-0.167981	0.006	-0.394173	0	-5.20767	0	-21.8934	641.576	59.9364	-0.154024	0.006	-0.832292	0	6.07727	0	0	0	0	0	0	0	0	0	0
1.5	-5.62415	504.466	-66.7145	-0.166993	0.006	-0.394367	0	-5.16411	0	-27.4621	624.668	58.2759	-0.150119	0.006	-0.832573	0	5.64341	0	0	0	0	0	0	0	0	0	0
1.51	0.163189	501.559	-69.5359	-0.166434	0.006	-0.394259	0	-4.99556	0	-31.6378	608.831	58.721	-0.146186	0.006	-0.833277	0	5.2964	0	0	0	0	0	0	0	0	0	0
1.52	5.17613	498.447	-71.9449	-0.165766	0.006	-0.394082	0	-4.77403	0	-34.2945	595.684	61.2537	-0.142612	0.006	-0.8344	0	5.02633	0	0	0	0	0	0	0	0	0	0
1.53	6.50667	489.85	-73.4233	-0.163866	0.006	-0.393711	0	-4.59418	0	-35.0173	585.657	64.5086	-0.139746	0.006	-0.835815	0	4.86646	0	0	0	0	0	0	0	0	0	0
1.54	4.39538	476.544	-75.1323	-0.160442	0.006	-0.392921	0	-4.43655	0	-33.3547	579.046	67.9601	-0.137528	0.006	-0.83736	0	4.7137	0	0	0	0	0	0	0	0	0	0
1.55	1.93488	463.115	-76.5587	-0.156615	0.006	-0.392101	0	-4.43022	0	-30.8349	573.268	72.1792	-0.135314	0.006	-0.839258	0	4.53156	0	0	0	0	0	0	0	0	0	0
1.56	0.720937	453.438	-77.2795	-0.153198	0.006	-0.391354	0	-4.56145	0	-30.9452	565.548	76.7528	-0.132408	0.006	-0.841371	0	4.34694	0	0	0	0	0	0	0	0	0	0
1.57	0.216992	448.878	-78.4251	-0.150644	0.006	-0.390595	0	-4.72594	0	-33.3953	557.235	80.103	-0.129172	0.006	-0.843478	0	4.24366	0	0	0	0	0	0	0	0	0	0
1.58	1.14103	448.222	-80.1126	-0.149089	0.006	-0.390199	0	-4.86767	0	-36.3004	549.959	82.233	-0.126069	0.006	-0.845447	0	4.19598	0	0	0	0	0	0	0	0	0	0
1.59	2.7095	452.039	-82.3207	-0.148021	0.006	-0.38984	0	-4.99176	0	-39.067	544.542	83.9332	-0.123532	0.006	-0.84725	0	4.16369	0	0	0	0	0	0	0	0	0	0
1.6	1.82827	458.94	-84.8285	-0.146581	0.006	-0.38927	0	-5.1185	0	-40.6319	541.221	85.5569	-0.121711	0.006	-0.848896	0	4.15714	0	0	0	0	0	0	0	0	0	0
1.61	-0.138647	465.414	-86.4398	-0.144194	0.006	-0.388427	0	-5.21876	0	-39.8183	541.079	86.7251	-0.120571	0.006	-0.850145	0	4.13862	0	0	0	0	0	0	0	0	0	0
1.62	-2.24629	470.661	-88.537	-0.140911	0.006	-0.387106	0	-5.08787	0	-37.6236	544.635	87.5359	-0.119801	0.006	-0.851121	0	4.18513	0	0	0	0	0	0	0	0	0	0
1.63	-5.95344	476.227	-91.7297	-0.136999	0.006	-0.385429	0	-4.74789	0	-35.2986	550.815	88.5077	-0.118959	0.006	-0.851918	0	4.25091	0	0	0	0	0	0	0	0	0	0
1.64	-10.7101	483.271	-93.9508	-0.133279	0.006	-0.383655	0	-4.49042	0	-32.7591	558.629	89.6529	-0.117753	0.006	-0.852367	0	4.32627	0	0	0	0	0	0	0	0	0	0
1.65	-13.4355	492.58	-95.3448	-0.129999	0.006	-0.381905	0	-4.42392	0	-31.7134	567.18	89.935	-0.115828	0.006	-0.852506	0	4.48721	0	0	0	0	0	0	0	0	0	0
1.66	-16.6517	502.88	-97.6267	-0.126669	0.006	-0.380065	0	-4.39146	0	-34.7608	574.23	89.0761	-0.113154	0.006	-0.852407	0	4.67095	0	0	0	0	0	0	0	0	0	0
1.67	-22.0517	513.628	-97.9237	-0.123767	0.006	-0.378526	0	-4.48729	0	-41.3604	578.238	87.4724	-0.110125	0.006	-0.852141	0	4.7247	0	0	0	0	0	0	0	0	0	0
1.68	-30.0809	521.504	-96.8663	-0.121136	0.006	-0.377325	0	-4.48841	0	-50.7056	580.004	84.9634	-0.106987	0.006	-0.851583	0	4.66571	0	0	0	0	0	0	0	0	0	0
1.69	-41.5523	524.514	-97.1957	-0.118138	0.006	-0.376154	0	-4.05527	0	-63.0151	580.337	82.5395	-0.103858	0.006	-0.850994	0	4.48853	0	0	0	0	0	0	0	0	0	0
1.7	-53.7873	522.746	-98.3542	-0.115032	0.006	-0.374826	0	-3.26486	0	-76.5018	577.671	80.0082	-0.100719	0.006	-0.850351	0	4.16248	0	0	0	0	0	0	0	0	0	0
1.71	-66.1672	515.995	-98.5083	-0.112309	0.006	-0.373574	0	-2.48081	0	-89.5032	571.178	76.6309	-0.097634	0.006	-0.849773	0	3.80242	0	0	0	0	0	0	0	0	0	0
1.72	-78.0838	499.68	-95.6912	-0.109581	0.006	-0.372655	0	-1.73202	0	-100.894	559.333	72.2296	-0.094902	0.006	-0.849384	0	3.49866	0	0	0	0	0	0	0	0	0	0
1.73	-83.0614	467.341	-87.3296	-0.106729	0.006	-0.372011	0	-1.04318	0	-108.544	536.414	65.7865	-0.092004	0.006	-0.849097	0	3.12025	0	0	0	0	0	0	0	0	0	0
1.74	-74.5122	414.357	-72.8869	-0.104199	0.006	-0.370892	0	-0.553273	0	-105.746	493.347	55.8782	-0.088974	0.006	-0.849033	0	2.64987	0	0	0	0	0	0	0	0	0	0
1.75	-48.9713	331.735	-51.8897	-0.10193	0.006	-0.369195	0	-0.440455	0	-82.8253	419.758	42.4739	-0.086005	0.006	-0.849421	0	2.30703	0	0	0	0	0	0	0	0	0	0
